<svg width="50" height="50" viewBox="0 0 50 50" fill="none" xmlns="http://www.w3.org/2000/svg">
<rect width="50" height="50" rx="25" fill="#FF7500"/>
<path d="M17.5511 34V31.7159L23.6108 25.7756C24.1903 25.1903 24.6733 24.6705 25.0597 24.2159C25.446 23.7614 25.7358 23.321 25.929 22.8949C26.1222 22.4687 26.2188 22.0142 26.2188 21.5312C26.2188 20.9801 26.0938 20.5085 25.8438 20.1165C25.5938 19.7188 25.25 19.4119 24.8125 19.196C24.375 18.9801 23.8778 18.8722 23.321 18.8722C22.7472 18.8722 22.2443 18.9915 21.8125 19.2301C21.3807 19.4631 21.0455 19.7955 20.8068 20.2273C20.5739 20.6591 20.4574 21.1733 20.4574 21.7699H17.4489C17.4489 20.6619 17.7017 19.6989 18.2074 18.8807C18.7131 18.0625 19.4091 17.429 20.2955 16.9801C21.1875 16.5312 22.2102 16.3068 23.3636 16.3068C24.5341 16.3068 25.5625 16.5256 26.4489 16.9631C27.3352 17.4006 28.0227 18 28.5114 18.7614C29.0057 19.5227 29.2528 20.392 29.2528 21.3693C29.2528 22.0227 29.1278 22.6648 28.8778 23.2955C28.6278 23.9261 28.1875 24.625 27.5568 25.392C26.9318 26.1591 26.054 27.0881 24.9233 28.179L21.9148 31.2386V31.358H29.517V34H17.5511Z" fill="white"/>
</svg>
