<svg width="50" height="50" viewBox="0 0 50 50" fill="none" xmlns="http://www.w3.org/2000/svg">
<rect width="50" height="50" rx="25" fill="#FF7500"/>
<path d="M23.8153 34.2386C22.5881 34.2386 21.4972 34.0284 20.5426 33.608C19.5938 33.1875 18.8438 32.6023 18.2926 31.8523C17.7415 31.1023 17.4489 30.2358 17.4148 29.2528H20.6193C20.6477 29.7244 20.804 30.1364 21.0881 30.4886C21.3722 30.8352 21.75 31.1051 22.2216 31.2983C22.6932 31.4915 23.2216 31.5881 23.8068 31.5881C24.4318 31.5881 24.9858 31.4801 25.4688 31.2642C25.9517 31.0426 26.3295 30.7358 26.6023 30.3438C26.875 29.9517 27.0085 29.5 27.0028 28.9886C27.0085 28.4602 26.8722 27.9943 26.5938 27.5909C26.3153 27.1875 25.9119 26.8722 25.3835 26.6449C24.8608 26.4176 24.2301 26.304 23.4915 26.304H21.9489V23.8665H23.4915C24.0994 23.8665 24.6307 23.7614 25.0852 23.5511C25.5455 23.3409 25.9063 23.0455 26.1676 22.6648C26.429 22.2784 26.5568 21.8324 26.5511 21.3267C26.5568 20.8324 26.446 20.4034 26.2188 20.0398C25.9972 19.6705 25.6818 19.3835 25.2727 19.179C24.8693 18.9744 24.3949 18.8722 23.8494 18.8722C23.3153 18.8722 22.821 18.9687 22.3665 19.1619C21.9119 19.3551 21.5455 19.6307 21.267 19.9886C20.9886 20.3409 20.8409 20.7614 20.8239 21.25H17.7812C17.804 20.2727 18.0852 19.4148 18.625 18.6761C19.1705 17.9318 19.8977 17.3523 20.8068 16.9375C21.7159 16.517 22.7358 16.3068 23.8665 16.3068C25.0313 16.3068 26.0426 16.5256 26.9006 16.9631C27.7642 17.3949 28.4318 17.9773 28.9034 18.7102C29.375 19.4432 29.6108 20.2528 29.6108 21.1392C29.6165 22.1222 29.3267 22.946 28.7415 23.6108C28.1619 24.2756 27.4006 24.7102 26.4574 24.9148V25.0511C27.6847 25.2216 28.625 25.6761 29.2784 26.4148C29.9375 27.1477 30.2642 28.0597 30.2585 29.1506C30.2585 30.1278 29.9801 31.0028 29.4233 31.7756C28.8722 32.5426 28.1108 33.1449 27.1392 33.5824C26.1733 34.0199 25.0653 34.2386 23.8153 34.2386Z" fill="white"/>
</svg>
