<svg width="74" height="74" viewBox="0 0 74 74" fill="none" xmlns="http://www.w3.org/2000/svg">
<circle cx="37" cy="37" r="37" fill="#FF7500" fill-opacity="0.04"/>
<path d="M19 33H55M53 45V34.3582C53 33.8511 53.0002 33.5977 52.9688 33.3484C52.9408 33.127 52.8941 32.9081 52.8297 32.6944C52.7571 32.4538 52.6539 32.2223 52.448 31.759L49.3555 24.8008C48.744 23.4251 48.4383 22.737 47.9551 22.2327C47.5279 21.7868 47.0041 21.446 46.4232 21.2367C45.766 21 45.0126 21 43.5071 21H30.4922C28.9867 21 28.2343 21 27.5771 21.2367C26.9963 21.446 26.4721 21.7868 26.0449 22.2327C25.5617 22.737 25.2557 23.4251 24.6443 24.8008L21.5518 31.759C21.3458 32.2223 21.2424 32.4538 21.1699 32.6944C21.1055 32.9081 21.0594 33.127 21.0314 33.3484C21 33.5977 21 33.8511 21 34.3582V45M53 45L21 45M53 45V47C53 49.2091 51.2091 51 49 51C46.7909 51 45 49.2091 45 47V45M21 45V47C21 49.2091 22.7909 51 25 51C27.2091 51 29 49.2091 29 47V45" stroke="#FF6B00" stroke-width="2" stroke-linecap="round" stroke-linejoin="round"/>
</svg>
